# xmcd CD database file
# Copyright (C) 1996 Ti Kan
#
# Track frame offsets:
#  170
#  28697
#  49855
#  67907
#  86757
#  127460
#  140835
#
# Disc length: 2356 seconds
#
# Revision: 2
# Processed by: cddbd v1.4PL0 Copyright (c) Steve Scherf et al.
# Submitted via: Gronk 1.4
#
DISCID=6a093207
DTITLE=Otis Rush - Tops
DYEAR=1900
DGENRE=blues
TTITLE0=Right Place, Wrong Time
TTITLE1=Crosscut Saw
TTITLE2=Tops
TTITLE3=Feel So Bad
TTITLE4=Gambler's Blues
TTITLE5=Keep On Lovin' Me Baby
TTITLE6=I Wonder Why
EXTD=BP 73188\n\nRecorded live at the 1985 San Francisco Blues Festival\n
EXTD=\nOtis Rush:  guitar\nBobby Murray:  rhythm guitar\nJimmy Pugh:  key
EXTD=boards\nLarry Jones:  trumpet\nJulien Vaught:  saxophone\nLeonard Gi
EXTD=ll:  bass\nKelvin Dixon:  drums\n\nSubmitted 6/9/97\n[Jmccoy@efn.org
EXTD=]
EXTT0=
EXTT1=
EXTT2=
EXTT3=
EXTT4=
EXTT5=
EXTT6=
PLAYORDER=
